<svg xmlns="http://www.w3.org/2000/svg" width="158" height="120" viewBox="0 0 158 120"><g><g clip-path="url(#clip-bd86c618-5da6-4c92-982c-f8448a9e5703)"><g><g><path fill="#134563" d="M143.422 9.035c2.619 0 4.583 1.964 4.583 4.583v92.307c0 2.618-1.964 4.582-4.583 4.582H14.126c-2.618 0-4.582-1.964-4.582-4.582V13.618c0-2.62 1.964-4.583 4.582-4.583zm14.075 97.217V13.945c0-7.529-6.219-13.748-13.748-13.748H14.453C6.925.197.706 6.417.706 13.945v92.307C.706 113.781 6.925 120 14.453 120H143.75c7.529 0 13.748-6.22 13.748-13.748z"/></g><g><path fill="#134563" d="M111.671 36.53c0 5.238-4.255 9.493-9.493 9.493-5.237 0-9.492-4.255-9.492-9.492 0-5.238 4.255-9.493 9.492-9.493 5.238 0 9.493 4.255 9.493 9.493zm8.51.328c0-9.82-8.183-18.003-18.003-18.003s-18.003 8.183-18.003 18.003 7.856 18.003 18.003 18.003c9.82 0 18.003-8.183 18.003-18.003z"/></g><g><path fill="#134563" d="M126.728 118.363l-75.613-71.03L7.907 87.266l-5.892-6.22 49.1-45.498 81.505 76.595-5.892 6.22"/></g><g><path fill="#134563" d="M150.296 94.795l-25.205-20.294-20.948 17.348-5.565-6.874 26.513-21.603 30.442 24.877-5.237 6.546"/></g></g></g><g clip-path="url(#clip-14961589-0a6b-43bc-8f49-d2aa84989aaa)"><g><g><path fill="#134563" d="M143.422 9.035c2.619 0 4.583 1.964 4.583 4.583v92.307c0 2.618-1.964 4.582-4.583 4.582H14.126c-2.618 0-4.582-1.964-4.582-4.582V13.618c0-2.62 1.964-4.583 4.582-4.583zm14.075 97.217V13.945c0-7.529-6.219-13.748-13.748-13.748H14.453C6.925.197.706 6.417.706 13.945v92.307C.706 113.781 6.925 120 14.453 120H143.75c7.529 0 13.748-6.22 13.748-13.748z"/></g><g><path fill="#134563" d="M111.671 36.53c0 5.238-4.255 9.493-9.493 9.493-5.237 0-9.492-4.255-9.492-9.492 0-5.238 4.255-9.493 9.492-9.493 5.238 0 9.493 4.255 9.493 9.493zm8.51.328c0-9.82-8.183-18.003-18.003-18.003s-18.003 8.183-18.003 18.003 7.856 18.003 18.003 18.003c9.82 0 18.003-8.183 18.003-18.003z"/></g><g><path fill="#134563" d="M126.728 118.363l-75.613-71.03L7.907 87.266l-5.892-6.22 49.1-45.498 81.505 76.595-5.892 6.22"/></g><g><path fill="#134563" d="M150.296 94.795l-25.205-20.294-20.948 17.348-5.565-6.874 26.513-21.603 30.442 24.877-5.237 6.546"/></g></g></g><g clip-path="url(#clip-36e04694-7576-44b6-99e6-ef356c126209)"><g><g><path fill="#134563" d="M143.422 9.035c2.619 0 4.583 1.964 4.583 4.583v92.307c0 2.618-1.964 4.582-4.583 4.582H14.126c-2.618 0-4.582-1.964-4.582-4.582V13.618c0-2.62 1.964-4.583 4.582-4.583zm14.075 97.217V13.945c0-7.529-6.219-13.748-13.748-13.748H14.453C6.925.197.706 6.417.706 13.945v92.307C.706 113.781 6.925 120 14.453 120H143.75c7.529 0 13.748-6.22 13.748-13.748z"/></g><g><path fill="#134563" d="M111.671 36.53c0 5.238-4.255 9.493-9.493 9.493-5.237 0-9.492-4.255-9.492-9.492 0-5.238 4.255-9.493 9.492-9.493 5.238 0 9.493 4.255 9.493 9.493zm8.51.328c0-9.82-8.183-18.003-18.003-18.003s-18.003 8.183-18.003 18.003 7.856 18.003 18.003 18.003c9.82 0 18.003-8.183 18.003-18.003z"/></g><g><path fill="#134563" d="M126.728 118.363l-75.613-71.03L7.907 87.266l-5.892-6.22 49.1-45.498 81.505 76.595-5.892 6.22"/></g><g><path fill="#134563" d="M150.296 94.795l-25.205-20.294-20.948 17.348-5.565-6.874 26.513-21.603 30.442 24.877-5.237 6.546"/></g></g></g><g clip-path="url(#clip-cda99b00-19d9-4799-8491-e645e6534d14)"><g><g><path fill="#134563" d="M143.422 9.035c2.619 0 4.583 1.964 4.583 4.583v92.307c0 2.618-1.964 4.582-4.583 4.582H14.126c-2.618 0-4.582-1.964-4.582-4.582V13.618c0-2.62 1.964-4.583 4.582-4.583zm14.075 97.217V13.945c0-7.529-6.219-13.748-13.748-13.748H14.453C6.925.197.706 6.417.706 13.945v92.307C.706 113.781 6.925 120 14.453 120H143.75c7.529 0 13.748-6.22 13.748-13.748z"/></g><g><path fill="#134563" d="M111.671 36.53c0 5.238-4.255 9.493-9.493 9.493-5.237 0-9.492-4.255-9.492-9.492 0-5.238 4.255-9.493 9.492-9.493 5.238 0 9.493 4.255 9.493 9.493zm8.51.328c0-9.82-8.183-18.003-18.003-18.003s-18.003 8.183-18.003 18.003 7.856 18.003 18.003 18.003c9.82 0 18.003-8.183 18.003-18.003z"/></g><g><path fill="#134563" d="M126.728 118.363l-75.613-71.03L7.907 87.266l-5.892-6.22 49.1-45.498 81.505 76.595-5.892 6.22"/></g><g><path fill="#134563" d="M150.296 94.795l-25.205-20.294-20.948 17.348-5.565-6.874 26.513-21.603 30.442 24.877-5.237 6.546"/></g></g></g></g></svg>