<svg xmlns="http://www.w3.org/2000/svg" width="602" height="460" viewBox="0 0 602 460"><g><g clip-path="url(#clip-64e45621-1b20-4726-9f32-889bb2eaa3ac)"><g><g><path fill="#134563" d="M548.003 33.977c10.051 0 17.59 7.538 17.59 17.59v354.324c0 10.052-7.539 17.59-17.59 17.59H51.697c-10.051 0-17.59-7.538-17.59-17.59V51.567c0-10.052 7.539-17.59 17.59-17.59zm1.256 425.942c28.899 0 52.771-23.873 52.771-52.771V52.824c0-28.899-23.872-52.772-52.771-52.772H52.954C24.054.052.182 23.925.182 52.824v354.324c0 28.898 23.873 52.771 52.772 52.771z"/></g><g><path fill="#134563" d="M426.125 139.52c0 20.103-16.334 36.437-36.437 36.437-20.104 0-36.437-16.334-36.437-36.437 0-20.104 16.333-36.438 36.437-36.438 20.103 0 36.437 16.334 36.437 36.438zm32.668 1.256c0-37.694-31.411-69.105-69.105-69.105s-69.106 31.411-69.106 69.105 30.155 69.106 69.106 69.106c37.694 0 69.105-31.412 69.105-69.106z"/></g><g><path fill="#134563" d="M483.923 453.637L193.68 180.983 27.825 334.273 5.208 310.4l188.47-174.65L506.54 429.765l-22.616 23.873"/></g><g><path fill="#134563" d="M574.388 363.171L477.64 285.27l-80.414 66.593-21.36-26.386L477.64 242.55l116.851 95.492-20.103 25.13"/></g></g></g></g></svg>