<svg xmlns="http://www.w3.org/2000/svg" width="47" height="35" viewBox="0 0 47 35"><g><g><g><g><path fill="none" stroke="#202135" stroke-linecap="round" stroke-linejoin="round" stroke-miterlimit="50" stroke-width="2" d="M3.891 1H38.59c1.542 0 2.892 1.35 2.892 2.891v23.132c0 1.542-1.35 2.892-2.892 2.892H3.891C2.35 29.915 1 28.565 1 27.023V3.891C1 2.35 2.35 1 3.891 1z"/></g><g><path fill="none" stroke="#202135" stroke-linecap="round" stroke-linejoin="round" stroke-miterlimit="50" stroke-width="2" d="M45.336 7.747v23.132c0 1.542-1.35 2.891-2.892 2.891H7.747v0"/></g><g><path fill="none" stroke="#202135" stroke-linecap="round" stroke-linejoin="round" stroke-miterlimit="50" stroke-width="2" d="M24 22.154h11"/></g><g><path fill="none" stroke="#202135" stroke-linecap="round" stroke-linejoin="round" stroke-miterlimit="50" stroke-width="2" d="M24 16.154h11"/></g><g><path fill="none" stroke="#202135" stroke-linecap="round" stroke-linejoin="round" stroke-miterlimit="50" stroke-width="2" d="M24 10.154h11"/></g><g><path fill="none" stroke="#202135" stroke-linecap="round" stroke-linejoin="round" stroke-miterlimit="50" stroke-width="2" d="M11 11.654c0-1.38 1.343-2.5 3-2.5s3 1.12 3 2.5c0 1.381-1.343 2.5-3 2.5s-3-1.119-3-2.5z"/></g><g><path fill="none" stroke="#202135" stroke-linecap="round" stroke-linejoin="round" stroke-miterlimit="50" stroke-width="2" d="M13.53 17.385c-1.928 0-3.663.578-5.398 1.35-.77.385-1.35 1.156-1.35 2.12v.385c0 .579.386.964.965.964h11.566c.578 0 .963-.385.963-.964v-.385c0-.964-.578-1.735-1.349-2.12-1.735-.772-3.47-1.35-5.397-1.35z"/></g></g></g></g></svg>