<svg xmlns="http://www.w3.org/2000/svg" width="41" height="37" viewBox="0 0 41 37"><g><g><g><path fill="#202135" d="M1.21 0a1.211 1.211 0 0 0 0 2.422H5.3c.869 0 1.63.554 1.902 1.391l5.433 16.74-2.39 1.674a3.147 3.147 0 0 0-1.378 2.643v.163c0 1.769 1.46 3.227 3.229 3.227h27.029a1.211 1.211 0 0 0 0-2.422h-27.03a.788.788 0 0 1-.807-.805v-.163c0-.176.249-.593.344-.66l2.873-2.008h19.253a2.827 2.827 0 0 0 2.68-1.956L40.213 8.54c.577-1.79-.798-3.696-2.68-3.696h-23.42a1.21 1.21 0 1 0 0 2.422h23.42c.299 0 .47.236.375.533l-.741 2.293H17.355a.807.807 0 1 0 0 1.614h19.291l-1.04 3.23H20.584a.807.807 0 1 0 0 1.614h14.502l-.953 2.952a.387.387 0 0 1-.375.278H14.934L9.507 3.065A4.437 4.437 0 0 0 5.3 0z"/></g><g><path fill="#202135" d="M18.958 32.7a2.422 2.422 0 1 1-4.843 0 2.422 2.422 0 0 1 4.843 0z"/></g><g><path fill="#202135" d="M35.103 32.7a2.422 2.422 0 1 1-4.844 0 2.422 2.422 0 0 1 4.844 0z"/></g></g><g><g><text dominant-baseline="text-before-edge" style="font-kerning:normal" fill="#fff" font-family="'Macho','Macho-Regular'" font-size="20" font-style="none" font-weight="400" transform="translate(2 18)"><tspan>0</tspan></text></g></g></g></svg>