<svg xmlns="http://www.w3.org/2000/svg" width="43" height="42" viewBox="0 0 43 42"><g><g><path fill="#ffafc2" d="M35.643 14.042a7.092 7.092 0 0 0-7.084-7.084H14.644a7.092 7.092 0 0 0-7.085 7.084v13.916a7.092 7.092 0 0 0 7.085 7.084h13.915a7.092 7.092 0 0 0 7.084-7.084zM42.601 0v42h-42V0zM32.587 14.042v13.916a4.033 4.033 0 0 1-4.028 4.028H14.644a4.033 4.033 0 0 1-4.029-4.028V14.042a4.033 4.033 0 0 1 4.029-4.028h13.915a4.033 4.033 0 0 1 4.028 4.028zm-10.986 2.782A4.182 4.182 0 0 0 17.424 21a4.183 4.183 0 0 0 4.177 4.177A4.182 4.182 0 0 0 25.778 21a4.181 4.181 0 0 0-4.177-4.176z"/></g></g></svg>