<svg xmlns="http://www.w3.org/2000/svg" width="42" height="43" viewBox="0 0 42 43"><g><g><g><path fill="#ffafc2" d="M17.448 21.893L28 16.24l-7.92 7.61-.372 3.48 2.157-2.086 7.044 5.73 3.548-18.981-19.736 8.211z"/></g><g><path fill="#ffafc2" d="M31.77 34.724s-.697 1.849-2.614.962l-7.09-5.766-4.546 4.399s-.355.286-.745.106c0 0-.335-.034-.755-1.435-.417-1.407-2.543-8.798-2.543-8.798L6.44 21.678s-1.08-.407-1.183-1.294c-.106-.887 1.22-1.369 1.22-1.369L34.449 7.374s2.301-1.072 2.301.702zM38.5.49h-35A3.511 3.511 0 0 0 0 3.99v35c0 1.924 1.576 3.5 3.5 3.5h35c1.924 0 3.5-1.576 3.5-3.5v-35c0-1.925-1.576-3.5-3.5-3.5z"/></g></g></g></svg>