<svg xmlns="http://www.w3.org/2000/svg" width="546" height="417" viewBox="0 0 546 417"><g><g clip-path="url(#clip-cd8600b1-2975-4b90-97f5-50f920194d52)"><g><g><path fill="#134563" d="M496.28 31.15c9.094 0 15.917 6.822 15.917 15.918V367.7c0 9.096-6.822 15.918-15.918 15.918H47.165c-9.096 0-15.918-6.821-15.918-15.918V47.068c0-9.096 6.822-15.918 15.918-15.918zm48.889 337.688V48.205c0-26.151-21.603-47.754-47.753-47.754H48.302C22.151.45.548 22.054.548 48.205v320.633c0 26.15 21.603 47.753 47.754 47.753h449.114c26.15 0 47.754-21.603 47.753-47.753z"/></g><g><path fill="#134563" d="M385.99 126.658c0 18.192-14.781 32.973-32.973 32.973s-32.973-14.781-32.973-32.973 14.78-32.973 32.973-32.973c18.192 0 32.973 14.78 32.973 32.973zm29.562 1.136c0-34.109-28.425-62.534-62.535-62.534s-62.535 28.425-62.535 62.535 27.288 62.535 62.535 62.535c34.11 0 62.535-28.425 62.535-62.536z"/></g><g><path fill="#134563" d="M438.292 410.906L175.646 164.178 25.562 302.89 5.096 281.288l170.55-158.042 283.111 266.057-20.465 21.603"/></g><g><path fill="#134563" d="M520.155 329.043l-87.548-70.494-72.768 60.26-19.33-23.877 92.098-75.041 105.74 86.412-18.192 22.74"/></g></g></g></g></svg>