<svg xmlns="http://www.w3.org/2000/svg" width="759" height="580" viewBox="0 0 759 580"><g><g clip-path="url(#clip-f9e026ab-6c20-43e0-98a5-0ab20d3084bf)"><g><g><path fill="#134563" d="M690.488 43.377c12.665 0 22.165 9.5 22.165 22.166V512.03c0 12.665-9.5 22.165-22.165 22.165h-625.4c-12.667 0-22.166-9.499-22.166-22.165V65.543c0-12.666 9.5-22.166 22.166-22.166zm1.583 536.735c36.415 0 66.498-30.082 66.497-66.498V67.126c0-36.415-30.082-66.498-66.498-66.498H66.67C30.256.628.173 30.71.173 67.126v446.488c0 36.416 30.083 66.498 66.499 66.498z"/></g><g><path fill="#134563" d="M536.907 176.373c0 25.332-20.582 45.915-45.915 45.915-25.332 0-45.915-20.582-45.915-45.915s20.583-45.915 45.915-45.915c25.333 0 45.915 20.582 45.915 45.915zm41.166 1.583c0-47.498-39.582-87.08-87.08-87.08-47.5 0-87.082 39.582-87.082 87.08 0 47.499 37.999 87.081 87.081 87.081 47.499 0 87.081-39.582 87.081-87.081z"/></g><g><path fill="#134563" d="M609.74 572.195L244 228.621 35.005 421.782 6.505 391.7 244 171.623l394.239 370.49-28.5 30.082"/></g><g><path fill="#134563" d="M723.736 458.198l-121.913-98.164-101.33 83.915-26.917-33.25 128.247-104.496 147.245 120.33-25.332 31.665"/></g></g></g></g></svg>