<svg xmlns="http://www.w3.org/2000/svg" width="456" height="347" viewBox="0 0 456 347"><g><g clip-path="url(#clip-1bb82af0-3315-49e8-bee1-2715f0c5ed46)"><g><g><path fill="#134563" d="M414.3 25.638c7.584 0 13.273 5.688 13.273 13.273v267.36c0 7.585-5.689 13.274-13.273 13.274H39.805c-7.585 0-13.273-5.689-13.273-13.274V38.911c0-7.585 5.688-13.273 13.273-13.273zm40.767 281.582V39.859c0-21.806-18.013-39.82-39.82-39.82H40.753C18.947.04.933 18.053.933 39.86v267.36c0 21.807 18.014 39.82 39.82 39.82h374.495c21.806 0 39.82-18.013 39.819-39.82z"/></g><g><path fill="#134563" d="M322.335 105.277c0 15.17-12.325 27.494-27.495 27.494-15.169 0-27.494-12.325-27.494-27.494 0-15.17 12.325-27.495 27.494-27.495 15.17 0 27.495 12.326 27.495 27.495zm24.65.948c0-28.443-23.702-52.145-52.145-52.145-28.442 0-52.144 23.702-52.144 52.145s22.754 52.145 52.144 52.145c28.443 0 52.145-23.702 52.145-52.145z"/></g><g><path fill="#134563" d="M365.947 342.299L146.94 136.564 21.79 252.23 4.725 234.217 146.94 102.433l236.074 221.852-17.066 18.014"/></g><g><path fill="#134563" d="M434.21 274.037l-73.003-58.782-60.678 50.249-16.118-19.91 76.796-62.574 88.172 72.055-15.17 18.962"/></g></g></g></g></svg>